<svg width="838" height="303" viewBox="0 0 838 303" fill="none" xmlns="http://www.w3.org/2000/svg">
<path d="M46.9127 123.017C46.9127 115.279 53.8187 110.635 64.0585 110.635C79.5373 110.635 88.8246 119.48 93.8255 125.45L122.64 105.329C114.781 93.1676 97.3975 77.9111 65.9636 77.9111C32.1483 77.9111 5.71526 94.9365 5.71526 123.46C5.71526 178.295 84.0619 169.008 84.0619 192.667C84.0619 201.511 76.2034 206.597 63.8204 206.597C45.0077 206.597 34.0534 198.637 25.7187 189.792L0 211.019C8.81102 224.285 29.0526 239.542 61.9153 239.542C97.6357 239.542 125.736 220.748 125.736 190.677C125.498 135.621 46.9127 147.339 46.9127 123.017Z" fill="#27147A"/>
<path d="M438.885 97.8106C434.122 91.8407 417.215 77.6897 389.353 77.6897C342.202 77.6897 308.625 111.298 308.625 158.616C308.625 205.933 340.059 239.321 387.924 239.321C416.739 239.321 432.932 224.064 436.504 219.642V237.773C436.504 261.653 414.595 268.286 390.782 268.286C367.921 268.286 348.87 260.326 343.631 257.673L330.295 288.849C345.298 296.588 368.397 303 391.258 303C440.076 303 480.321 284.427 480.321 227.16V81.6697H439.123V97.8106H438.885ZM395.068 203.501C370.302 203.501 352.68 185.591 352.68 158.395C352.68 131.419 370.064 113.731 394.83 113.731C420.549 113.731 437.695 132.304 437.695 158.395C437.456 185.812 420.311 203.501 395.068 203.501Z" fill="#27147A"/>
<path d="M688.926 81.6698H645.109V235.562H688.926V81.6698Z" fill="#27147A"/>
<path d="M759.177 123.017C759.177 115.279 766.083 110.635 776.323 110.635C791.802 110.635 801.089 119.48 806.09 125.45L834.905 105.329C827.046 93.1676 809.662 77.9111 778.228 77.9111C744.413 77.9111 717.98 94.9365 717.98 123.46C717.98 178.295 796.327 169.008 796.327 192.667C796.327 201.511 788.468 206.597 776.085 206.597C757.272 206.597 746.318 198.637 737.983 189.792L712.265 211.019C721.076 224.285 741.317 239.542 774.18 239.542C809.9 239.542 838 220.748 838 190.677C837.762 135.621 759.177 147.339 759.177 123.017Z" fill="#27147A"/>
<path d="M672.488 50.5237C685.928 47.5772 694.25 35.0727 691.077 22.5943C687.903 10.1158 674.436 2.38863 660.996 5.33514C647.557 8.28166 639.235 20.7861 642.408 33.2646C645.582 45.743 659.049 53.4702 672.488 50.5237Z" fill="#27147A"/>
<path d="M555.808 104.002V81.6698H512.943V235.562H556.76V168.566C556.76 134.736 577.478 110.193 620.819 121.248V80.122C588.194 71.2777 563.666 84.102 555.808 104.002Z" fill="#27147A"/>
<path d="M258.14 96.7052L176.697 293.935H203.13C213.37 293.935 222.657 287.965 226.468 279.12L307.91 81.8909H281.477C271.237 81.6698 261.95 87.6397 258.14 96.7052Z" fill="#27147A"/>
<path d="M220.514 184.707L178.126 81.6698H134.309L176.935 184.707H220.514Z" fill="#27147A"/>
</svg>
